<?xml version="1.0" encoding="UTF-8" standalone="no"?>
<svg width="256px" height="256px" viewBox="0 0 256 256" version="1.1" xmlns="http://www.w3.org/2000/svg" xmlns:xlink="http://www.w3.org/1999/xlink">
    <!-- Generator: Sketch 3.7.1 (28215) - http://www.bohemiancoding.com/sketch -->
    <title>sketch-logo</title>
    <desc>Created with Sketch.</desc>
    <defs>
        <linearGradient x1="50%" y1="105.5625%" x2="50%" y2="45.1085069%" id="linearGradient-1">
            <stop stop-color="#FFF2C4" offset="0%"></stop>
            <stop stop-color="#FF8028" offset="100%"></stop>
        </linearGradient>
        <path d="M0,54.5927098 L31.5619342,15.8116114 L68.8540517,0 L112,1.57684955e-06 L112,204 L0,54.5927098 Z M224,54.5927098 L192.438066,15.8116114 L155.145948,0 L112,1.57684955e-06 L112,204 L224,54.5927098 Z" id="path-2"></path>
        <filter x="-50%" y="-50%" width="200%" height="200%" filterUnits="objectBoundingBox" id="filter-3">
            <feOffset dx="0" dy="2" in="SourceAlpha" result="shadowOffsetOuter1"></feOffset>
            <feGaussianBlur stdDeviation="3.5" in="shadowOffsetOuter1" result="shadowBlurOuter1"></feGaussianBlur>
            <feColorMatrix values="0 0 0 0 0   0 0 0 0 0   0 0 0 0 0  0 0 0 0.5 0" type="matrix" in="shadowBlurOuter1"></feColorMatrix>
        </filter>
        <linearGradient x1="50%" y1="0%" x2="50%" y2="100%" id="linearGradient-4">
            <stop stop-color="#FDBD54" offset="0%"></stop>
            <stop stop-color="#F56926" offset="100%"></stop>
        </linearGradient>
        <linearGradient x1="50%" y1="0%" x2="50%" y2="100%" id="linearGradient-5">
            <stop stop-color="#F9913C" offset="0%"></stop>
            <stop stop-color="#F9B85B" offset="100%"></stop>
        </linearGradient>
        <linearGradient x1="50%" y1="0%" x2="50%" y2="100%" id="linearGradient-6">
            <stop stop-color="#FFFFF8" offset="0%"></stop>
            <stop stop-color="#FCDAAA" offset="52.1584024%"></stop>
            <stop stop-color="#FDEACE" offset="100%"></stop>
        </linearGradient>
        <linearGradient x1="60.5706252%" y1="14.8710029%" x2="3.12219718%" y2="100%" id="linearGradient-7">
            <stop stop-color="#FEF6E8" offset="0%"></stop>
            <stop stop-color="#FBB856" offset="50.7971939%"></stop>
            <stop stop-color="#FFE2B9" offset="100%"></stop>
        </linearGradient>
        <linearGradient x1="0%" y1="37.3210204%" x2="50%" y2="100%" id="linearGradient-8">
            <stop stop-color="#FFDC65" offset="0%"></stop>
            <stop stop-color="#F56423" offset="100%"></stop>
        </linearGradient>
        <linearGradient x1="25.1163808%" y1="50%" x2="96.064547%" y2="86.3999928%" id="linearGradient-9">
            <stop stop-color="#FFDC65" offset="0%"></stop>
            <stop stop-color="#F56423" offset="100%"></stop>
        </linearGradient>
        <linearGradient x1="84.456115%" y1="18.5546875%" x2="0%" y2="85.1058468%" id="linearGradient-10">
            <stop stop-color="#FFDC65" offset="0%"></stop>
            <stop stop-color="#F56423" offset="100%"></stop>
        </linearGradient>
        <linearGradient x1="50%" y1="0%" x2="50%" y2="100%" id="linearGradient-11">
            <stop stop-color="#FDDC93" stop-opacity="0.1" offset="0%"></stop>
            <stop stop-color="#F9B75A" stop-opacity="0.5" offset="100%"></stop>
        </linearGradient>
        <linearGradient x1="50%" y1="0%" x2="50%" y2="100%" id="linearGradient-12">
            <stop stop-color="#FAA245" offset="0%"></stop>
            <stop stop-color="#FF8028" offset="100%"></stop>
        </linearGradient>
        <linearGradient x1="50%" y1="0%" x2="50%" y2="100%" id="linearGradient-13">
            <stop stop-color="#FAA245" offset="0%"></stop>
            <stop stop-color="#FBC27E" offset="100%"></stop>
        </linearGradient>
        <linearGradient x1="50%" y1="100%" x2="59.151958%" y2="1.87938457%" id="linearGradient-14">
            <stop stop-color="#FFDC65" offset="0%"></stop>
            <stop stop-color="#FF8129" offset="81.7004145%"></stop>
            <stop stop-color="#FCB952" stop-opacity="0.5" offset="100%"></stop>
        </linearGradient>
    </defs>
    <g id="Page-1" stroke="none" stroke-width="1" fill="none" fill-rule="evenodd">
        <g id="sketch-logo">
            <g id="Group" transform="translate(17.000000, 27.000000)">
                <g id="Mask">
                    <use fill="black" fill-opacity="1" filter="url(#filter-3)" xlink:href="#path-2"></use>
                    <use fill="url(#linearGradient-1)" fill-rule="evenodd" xlink:href="#path-2"></use>
                </g>
                <path d="M112.125134,203.636442 L112.125134,204 L112,203.833088 L112.125134,203.636442 L112.125134,204 L224,54.7744416 L221.741801,52 L192.404268,77.4792894 L112.125134,203.636442 Z" id="Combined-Shape" fill="url(#linearGradient-1)"></path>
                <path d="M0.0140770768,55 L0,55.0172478 L112,204 L112,203.195164 L31.9136273,78.0602374 L0.0140770768,55 Z" id="Combined-Shape" fill="url(#linearGradient-4)"></path>
                <polygon id="Path-218" fill="url(#linearGradient-5)" points="31 78 193 78 163.017435 35 60.9705751 35"></polygon>
                <path d="M192.834476,77.7626103 L163.017435,35 L67.8890757,35 L192.834476,77.7626103 Z" id="Combined-Shape" fill-opacity="0.5" fill="url(#linearGradient-6)"></path>
                <path d="M31.8681508,78 L31,78 L60.9705751,35 L158.301677,35 L31.8681508,78 Z" id="Combined-Shape" fill-opacity="0.5" fill="url(#linearGradient-7)"></path>
                <polygon id="Path-214-Copy" fill="url(#linearGradient-8)" points="31.8876655 78 66 35.0459882 31.5442437 16 0 54.9174718"></polygon>
                <path d="M65.8725061,34.9755139 L31.5442437,16 L1.49243167,53.0761956 L65.8725061,34.9755139 Z" id="Combined-Shape" fill="url(#linearGradient-8)"></path>
                <path d="M32.3043191,16.4201442 L66,35.0459882 L31.8876655,78 L31.8123053,77.945449 L32.3043191,16.4201442 Z" id="Combined-Shape" fill="url(#linearGradient-8)"></path>
                <polygon id="Path-214-Copy-3" fill="url(#linearGradient-8)" transform="translate(191.000000, 47.000000) scale(-1, 1) translate(-191.000000, -47.000000) " points="189.887665 78 224 35.0459882 189.544244 16 158 54.9174718"></polygon>
                <path d="M158.266525,35.3815943 L158,35.0459882 L192.455756,16 L223.282034,54.0316872 L158.266525,35.3815943 Z" id="Combined-Shape" fill="url(#linearGradient-9)"></path>
                <path d="M193.234645,16.9609484 L192.455756,16 L158,35.0459882 L192.112335,78 L192.252007,77.8988951 L193.234645,16.9609484 Z" id="Combined-Shape" fill="url(#linearGradient-10)"></path>
                <polygon id="Path-23" fill="url(#linearGradient-11)" points="112.244141 202.328125 90.7070312 81.3789062 130.546106 81.3789062"></polygon>
            </g>
            <polygon id="Path-24" fill="url(#linearGradient-12)" points="173.990234 60.7207031 85.0799818 60.7207031 172.324219 28.4414062 206.289062 42.7753906"></polygon>
            <polygon id="Path-24" fill-opacity="0.5" fill="url(#linearGradient-13)" transform="translate(111.604540, 44.139648) scale(-1, 1) translate(-111.604540, -44.139648) " points="139.910253 60.2792969 51 60.2792969 138.244237 28 172.209081 42.3339844"></polygon>
            <path d="M129.638672,229.265625 L71.6933594,132.224609 C71.6933594,132.224609 90.0097656,122.464844 129.177734,122.464844 C168.345703,122.464844 188.402344,131.576172 188.402344,131.576172 L129.638672,229.265625 Z" id="Path-26" fill-opacity="0.4" fill="url(#linearGradient-14)"></path>
        </g>
    </g>
</svg>