<?xml version="1.0" standalone="no"?>
<!DOCTYPE svg PUBLIC "-//W3C//DTD SVG 20010904//EN"
 "http://www.w3.org/TR/2001/REC-SVG-20010904/DTD/svg10.dtd">
<svg version="1.0" xmlns="http://www.w3.org/2000/svg"
 width="572.000000pt" height="572.000000pt" viewBox="0 0 572.000000 572.000000"
 preserveAspectRatio="xMidYMid meet">
<metadata>
Created by potrace 1.11, written by Peter Selinger 2001-2013
</metadata>
<g transform="translate(0.000000,572.000000) scale(0.100000,-0.100000)"
fill="#000000" stroke="none">
<path d="M664 5380 c-14 -47 -34 -112 -44 -145 -31 -101 -60 -200 -65 -220 -2
-11 -29 -103 -60 -205 -31 -102 -65 -216 -76 -255 -24 -85 -171 -578 -205
-691 -13 -44 -24 -86 -24 -92 0 -7 -4 -20 -10 -30 -5 -9 -16 -44 -25 -77 -9
-33 -27 -96 -40 -140 -69 -226 -108 -362 -111 -382 l-2 -21 249 0 c138 0 253
-3 257 -7 12 -12 10 -2605 -2 -2606 -6 -1 -63 -2 -126 -4 -63 -1 -120 -3 -127
-4 -14 -1 -15 -69 -1 -77 4 -3 8 -40 8 -83 l0 -79 2633 2 2632 1 0 118 c0 71
-4 118 -10 118 -5 1 -77 3 -160 4 -82 1 -155 3 -160 4 -7 1 -10 441 -10 1306
0 1298 0 1305 20 1306 11 0 130 1 265 2 l245 2 -3 26 c-1 14 -32 124 -68 245
-36 120 -70 233 -74 249 -4 17 -38 131 -75 255 -37 124 -69 232 -70 240 -2 8
-8 29 -14 45 -6 17 -21 68 -35 115 -14 47 -37 126 -52 175 -16 50 -29 95 -30
100 -2 6 -5 19 -8 30 -14 57 -79 272 -87 287 -5 10 -9 24 -9 31 0 8 -8 40 -19
73 -18 59 -42 139 -82 277 -12 39 -30 99 -40 132 l-19 60 -2170 0 -2171 0 -25
-85z"/>
</g>
</svg>
