<?xml version="1.0" encoding="UTF-8" standalone="no"?>
<svg width="400px" height="269px" viewBox="0 0 400 269" version="1.1" xmlns="http://www.w3.org/2000/svg" xmlns:xlink="http://www.w3.org/1999/xlink">
    <!-- Generator: Sketch 3.6.1 (26313) - http://www.bohemiancoding.com/sketch -->
    <title>Group</title>
    <desc>Created with Sketch.</desc>
    <defs>
        <filter x="-50%" y="-50%" width="200%" height="200%" filterUnits="objectBoundingBox" id="filter-1">
            <feOffset dx="1" dy="3" in="SourceAlpha" result="shadowOffsetOuter1"></feOffset>
            <feGaussianBlur stdDeviation="1.5" in="shadowOffsetOuter1" result="shadowBlurOuter1"></feGaussianBlur>
            <feColorMatrix values="0 0 0 0 0   0 0 0 0 0   0 0 0 0 0  0 0 0 0.175 0" in="shadowBlurOuter1" type="matrix" result="shadowMatrixOuter1"></feColorMatrix>
            <feMerge>
                <feMergeNode in="shadowMatrixOuter1"></feMergeNode>
                <feMergeNode in="SourceGraphic"></feMergeNode>
            </feMerge>
        </filter>
        <linearGradient x1="0%" y1="50%" x2="100%" y2="50%" id="linearGradient-2">
            <stop stop-color="#FF8080" offset="0%"></stop>
            <stop stop-color="#FF5953" offset="100%"></stop>
        </linearGradient>
        <linearGradient x1="0%" y1="50%" x2="100%" y2="50%" id="linearGradient-3">
            <stop stop-color="#FF716E" offset="0%"></stop>
            <stop stop-color="#FF8080" offset="100%"></stop>
        </linearGradient>
        <linearGradient x1="50%" y1="24.4359853%" x2="50%" y2="100%" id="linearGradient-4">
            <stop stop-color="#F85B61" offset="0%"></stop>
            <stop stop-color="#F57D82" offset="100%"></stop>
        </linearGradient>
        <linearGradient x1="50%" y1="0%" x2="50%" y2="100%" id="linearGradient-5">
            <stop stop-color="#FF8080" offset="0%"></stop>
            <stop stop-color="#FC9292" offset="100%"></stop>
        </linearGradient>
    </defs>
    <g id="Page-1" stroke="none" stroke-width="1" fill="none" fill-rule="evenodd" filter="url(#filter-1)">
        <g id="512" transform="translate(-57.000000, -81.000000)">
            <g id="Group" transform="translate(58.000000, 81.000000)">
                <path d="M156,139 L0.45703125,147.679688 L132,194 L156,139 Z" id="Shape" fill="url(#linearGradient-2)"></path>
                <path d="M395.542969,139 L240,147.679688 L371.542969,194 L395.542969,139 Z" id="Shape" fill="url(#linearGradient-3)" transform="translate(317.771484, 166.500000) scale(-1, 1) translate(-317.771484, -166.500000) "></path>
                <path d="M198,244.5 L198,0 L133,192 L198,244.5 L198,244.5 Z" id="Shape" fill="#FF8080"></path>
                <path d="M198,244.5 L198,0 L262.5,192 L198,244.5 L198,244.5 Z" id="Shape" fill="url(#linearGradient-4)"></path>
                <path d="M198,192 L62,262.5 L334,262.5 L198,192 L198,192 Z" id="Shape" fill="url(#linearGradient-5)"></path>
                <path d="M0.662645936,147.709243 L62,262.5 L198,192 L0.662645936,147.709243 Z" id="Shape" fill="#F85B61"></path>
                <path d="M198,147.709243 L259.337354,262.5 L395.337354,192 L198,147.709243 Z" id="Shape" fill="#F85B61" transform="translate(296.668677, 205.104622) scale(-1, 1) translate(-296.668677, -205.104622) "></path>
            </g>
        </g>
    </g>
</svg>