<?xml version="1.0" encoding="UTF-8" standalone="no"?>
<svg width="256px" height="256px" viewBox="0 0 256 256" version="1.1" xmlns="http://www.w3.org/2000/svg" xmlns:xlink="http://www.w3.org/1999/xlink">
    <!-- Generator: Sketch 3.7.1 (28215) - http://www.bohemiancoding.com/sketch -->
    <title>256</title>
    <desc>Created with Sketch.</desc>
    <defs></defs>
    <g id="Page-1" stroke="none" stroke-width="1" fill="none" fill-rule="evenodd">
        <g id="256">
            <path d="M125.438452,3.86537345 C192.02916,3.86537345 246.011601,57.8481076 246.011601,124.438388 C246.011601,191.029021 192.028806,245.011402 125.438452,245.011402 C58.8477435,245.011402 4.86530194,191.028667 4.86530194,124.438388 C4.86530194,57.8477543 58.8480968,3.86537345 125.438452,3.86537345 L125.438452,3.86537345 Z" id="Shape" fill="#5E35B1"></path>
            <g id="Group" transform="translate(43.000000, 49.000000)">
                <polygon id="_254942696" fill="#4527A0" points="146.01245 0 166 67.4801654 150.448644 67.4801654 150.448644 138.537319 150.448644 141.513263 150.448644 143.910342 160.324589 143.910342 160.324589 151 7.53179191 151 7.53179191 143.910342 15.5513562 143.910342 15.5513562 141.513263 15.5513562 138.537319 15.5513562 67.4801654 0 67.4801654 19.9879947 0 38.3454869 0 45.6625167 0 58.78257 0 65.9186305 0 79.693197 0 86.7727879 0 100.081369 0 107.21743 0 120.337039 0 127.654513 0"></polygon>
                <polygon id="Shape" fill="#00897B" points="150 67.6347006 150 139.365299 150 142.354501 150 146 146.508682 146 142.952397 146 22.047603 146 18.4913179 146 15 146 15 142.354501 15 139.365299 15 67.6347006 15 64.6459442 15 61 18.4913179 61 22.047603 61 142.952397 61 146.508682 61 150 61 150 64.6459442"></polygon>
                <polygon id="Shape" fill="#4DB6AC" points="7 144 159 144 159 146.23762 7 146.23762"></polygon>
                <polygon id="Shape" fill="#E0F7FA" points="143 139 143 67 142.935051 67 22.0649485 67 22 67 22 139 22.0649485 139 142.935051 139"></polygon>
                <polygon id="Shape" fill="#6D4C41" points="62 139 62 67 61.9783231 67 22.0212345 67 22 67 22 139 22.0212345 139 61.9783231 139"></polygon>
                <polygon id="Shape" fill="#00897B" points="63.1249 64 63.1249 144 62 144 62 64"></polygon>
                <path d="M146.012272,9.92521635e-15 L166,68 L0,68 L19.9877279,0 L146.012183,0 L146.012272,9.92521635e-15 Z" id="Shape" fill="#EF5350"></path>
                <polygon id="Shape" fill="#D32F2F" points="120 0 126.91194 0 139.96974 68 133.0578 68"></polygon>
                <polygon id="Shape" fill="#D32F2F" points="99 0 103.49372 0 107.87824 68 103.3848 68"></polygon>
                <polygon id="Shape" fill="#D32F2F" points="79.16624 0 81.71376 0 81.54768 68 79 68"></polygon>
                <polygon id="Shape" fill="#D32F2F" points="55.38452 0 59.87824 0 55.49344 68 51 68"></polygon>
                <polygon id="Shape" fill="#D32F2F" points="37.0578 0 43.96932 0 30.91152 68 24 68"></polygon>
                <ellipse id="Oval" fill="#4E342E" cx="55.0683694" cy="98.0683694" rx="1.0683694" ry="1.0683694"></ellipse>
                <path d="M117.02748,92 L97,112.02704" id="Shape"></path>
                <path d="M119.351125,93.7823854 C120.216292,92.9172136 120.216292,91.5140461 119.351125,90.6488789 C118.485781,89.783707 117.082797,89.783707 116.217635,90.6488789 L95.6490076,111.217434 C94.7836641,112.082782 94.7836641,113.485773 95.6490076,114.351121 C96.5141748,115.216293 97.9173348,115.216293 98.7824975,114.351121 L119.351125,93.7823854 L119.351125,93.7823854 Z" id="Shape" fill="#80DEEA"></path>
                <path d="M116.85524,102 L106,112.85524" id="Shape"></path>
                <path d="M113.912653,102.511141 C114.487024,101.936653 114.487024,101.005234 113.912653,100.430866 C113.338165,99.856378 112.406746,99.856378 111.832378,100.430866 L104.430778,107.832256 C103.856407,108.406627 103.856407,109.338163 104.430778,109.912531 C105.005266,110.486902 105.936685,110.486902 106.511053,109.912531 L113.912653,102.511141 L113.912653,102.511141 Z" id="Shape" fill="#80DEEA"></path>
                <path d="M105.85524,92 L95,102.85524" id="Shape"></path>
                <path d="M101.912531,92.511141 C102.487019,91.93677 102.487019,91.005234 101.912531,90.430866 C101.33816,89.856378 100.406744,89.856378 99.832256,90.430866 L92.430866,97.832256 C91.856378,98.406627 91.856378,99.338163 92.430866,99.912531 C93.005237,100.487019 93.936773,100.487019 94.511141,99.912531 L101.912531,92.511141 L101.912531,92.511141 Z" id="Shape" fill="#80DEEA"></path>
            </g>
        </g>
    </g>
</svg>